<svg xmlns="http://www.w3.org/2000/svg" xmlns:xlink="http://www.w3.org/1999/xlink" contentstyletype="text/css" height="791px" preserveAspectRatio="none" style="width:673px;height:791px;background:#FFFFFF;" version="1.1" viewBox="0 0 673 791" width="673px" zoomAndPan="magnify"><defs></defs><g><rect fill="none" height="524.4063" style="stroke:#000000;stroke-width:1.5;" width="656.0078" x="10" y="169.5625"></rect><rect fill="none" height="407.2031" style="stroke:#000000;stroke-width:1.5;" width="626.9102" x="20" y="279.7656"></rect><rect fill="none" height="260.8672" style="stroke:#000000;stroke-width:1.5;" width="606.9102" x="30" y="333.0313"></rect><line style="stroke:#181818;stroke-width:0.5;stroke-dasharray:5.0,5.0;" x1="58" x2="58" y1="81.2969" y2="710.9688"></line><line style="stroke:#181818;stroke-width:0.5;stroke-dasharray:5.0,5.0;" x1="146.9102" x2="146.9102" y1="81.2969" y2="710.9688"></line><line style="stroke:#181818;stroke-width:0.5;stroke-dasharray:5.0,5.0;" x1="441.0532" x2="441.0532" y1="81.2969" y2="710.9688"></line><text fill="#000000" font-family="sans-serif" font-size="14" lengthAdjust="spacing" textLength="31.9102" x="40" y="77.9951">User</text><ellipse cx="58.9551" cy="13.5" fill="#E2E2F0" rx="8" ry="8" style="stroke:#181818;stroke-width:0.5;"></ellipse><path d="M58.9551,21.5 L58.9551,48.5 M45.9551,29.5 L71.9551,29.5 M58.9551,48.5 L45.9551,63.5 M58.9551,48.5 L71.9551,63.5 " fill="none" style="stroke:#181818;stroke-width:0.5;"></path><text fill="#000000" font-family="sans-serif" font-size="14" lengthAdjust="spacing" textLength="31.9102" x="40" y="722.9639">User</text><ellipse cx="58.9551" cy="734.7656" fill="#E2E2F0" rx="8" ry="8" style="stroke:#181818;stroke-width:0.5;"></ellipse><path d="M58.9551,742.7656 L58.9551,769.7656 M45.9551,750.7656 L71.9551,750.7656 M58.9551,769.7656 L45.9551,784.7656 M58.9551,769.7656 L71.9551,784.7656 " fill="none" style="stroke:#181818;stroke-width:0.5;"></path><text fill="#000000" font-family="sans-serif" font-size="14" lengthAdjust="spacing" textLength="112.2324" x="87.9102" y="77.9951">Authorized User</text><ellipse cx="147.0264" cy="13.5" fill="#E2E2F0" rx="8" ry="8" style="stroke:#181818;stroke-width:0.5;"></ellipse><path d="M147.0264,21.5 L147.0264,48.5 M134.0264,29.5 L160.0264,29.5 M147.0264,48.5 L134.0264,63.5 M147.0264,48.5 L160.0264,63.5 " fill="none" style="stroke:#181818;stroke-width:0.5;"></path><text fill="#000000" font-family="sans-serif" font-size="14" lengthAdjust="spacing" textLength="112.2324" x="87.9102" y="722.9639">Authorized User</text><ellipse cx="147.0264" cy="734.7656" fill="#E2E2F0" rx="8" ry="8" style="stroke:#181818;stroke-width:0.5;"></ellipse><path d="M147.0264,742.7656 L147.0264,769.7656 M134.0264,750.7656 L160.0264,750.7656 M147.0264,769.7656 L134.0264,784.7656 M147.0264,769.7656 L160.0264,784.7656 " fill="none" style="stroke:#181818;stroke-width:0.5;"></path><rect fill="#E2E2F0" height="30.2969" rx="2.5" ry="2.5" style="stroke:#181818;stroke-width:0.5;" width="119.6221" x="382.0532" y="50"></rect><text fill="#000000" font-family="sans-serif" font-size="14" lengthAdjust="spacing" textLength="105.6221" x="389.0532" y="69.9951">Waiver System</text><rect fill="#E2E2F0" height="30.2969" rx="2.5" ry="2.5" style="stroke:#181818;stroke-width:0.5;" width="119.6221" x="382.0532" y="709.9688"></rect><text fill="#000000" font-family="sans-serif" font-size="14" lengthAdjust="spacing" textLength="105.6221" x="389.0532" y="729.9639">Waiver System</text><polygon fill="#181818" points="429.8643,108.4297,439.8643,112.4297,429.8643,116.4297,433.8643,112.4297" style="stroke:#181818;stroke-width:1.0;"></polygon><line style="stroke:#181818;stroke-width:1.0;" x1="58.9551" x2="435.8643" y1="112.4297" y2="112.4297"></line><text fill="#000000" font-family="sans-serif" font-size="13" lengthAdjust="spacing" textLength="358.9092" x="65.9551" y="107.3638">Submit Waiver Request (bill/line item, reason, amount)</text><line style="stroke:#181818;stroke-width:1.0;" x1="441.8643" x2="483.8643" y1="141.5625" y2="141.5625"></line><line style="stroke:#181818;stroke-width:1.0;" x1="483.8643" x2="483.8643" y1="141.5625" y2="154.5625"></line><line style="stroke:#181818;stroke-width:1.0;" x1="442.8643" x2="483.8643" y1="154.5625" y2="154.5625"></line><polygon fill="#181818" points="452.8643,150.5625,442.8643,154.5625,452.8643,158.5625,448.8643,154.5625" style="stroke:#181818;stroke-width:1.0;"></polygon><text fill="#000000" font-family="sans-serif" font-size="13" lengthAdjust="spacing" textLength="108.6147" x="448.8643" y="136.4966">Validate Amount</text><path d="M10,169.5625 L74.4429,169.5625 L74.4429,176.6953 L64.4429,186.6953 L10,186.6953 L10,169.5625 " fill="#EEEEEE" style="stroke:#000000;stroke-width:1.5;"></path><rect fill="none" height="524.4063" style="stroke:#000000;stroke-width:1.5;" width="656.0078" x="10" y="169.5625"></rect><text fill="#000000" font-family="sans-serif" font-size="13" font-weight="bold" lengthAdjust="spacing" textLength="19.4429" x="25" y="182.6294">alt</text><text fill="#000000" font-family="sans-serif" font-size="11" font-weight="bold" lengthAdjust="spacing" textLength="104.269" x="89.4429" y="181.7729">[Invalid Amount]</text><polygon fill="#181818" points="69.9551,203.8281,59.9551,207.8281,69.9551,211.8281,65.9551,207.8281" style="stroke:#181818;stroke-width:1.0;"></polygon><line style="stroke:#181818;stroke-width:1.0;" x1="63.9551" x2="440.8643" y1="207.8281" y2="207.8281"></line><text fill="#000000" font-family="sans-serif" font-size="13" lengthAdjust="spacing" textLength="299.0508" x="75.9551" y="202.7622">Reject Request (Error: Amount Exceeds Limit)</text><line style="stroke:#000000;stroke-width:1.0;stroke-dasharray:2.0,2.0;" x1="10" x2="666.0078" y1="216.8281" y2="216.8281"></line><text fill="#000000" font-family="sans-serif" font-size="11" font-weight="bold" lengthAdjust="spacing" textLength="93.688" x="15" y="227.0386">[Valid Amount]</text><line style="stroke:#181818;stroke-width:1.0;" x1="441.8643" x2="483.8643" y1="251.7656" y2="251.7656"></line><line style="stroke:#181818;stroke-width:1.0;" x1="483.8643" x2="483.8643" y1="251.7656" y2="264.7656"></line><line style="stroke:#181818;stroke-width:1.0;" x1="442.8643" x2="483.8643" y1="264.7656" y2="264.7656"></line><polygon fill="#181818" points="452.8643,260.7656,442.8643,264.7656,452.8643,268.7656,448.8643,264.7656" style="stroke:#181818;stroke-width:1.0;"></polygon><text fill="#000000" font-family="sans-serif" font-size="13" lengthAdjust="spacing" textLength="205.1436" x="448.8643" y="246.6997">Save Waiver (Status: PENDING)</text><path d="M20,279.7656 L84.4429,279.7656 L84.4429,286.8984 L74.4429,296.8984 L20,296.8984 L20,279.7656 " fill="#EEEEEE" style="stroke:#000000;stroke-width:1.5;"></path><rect fill="none" height="407.2031" style="stroke:#000000;stroke-width:1.5;" width="626.9102" x="20" y="279.7656"></rect><text fill="#000000" font-family="sans-serif" font-size="13" font-weight="bold" lengthAdjust="spacing" textLength="19.4429" x="35" y="292.8325">alt</text><text fill="#000000" font-family="sans-serif" font-size="11" font-weight="bold" lengthAdjust="spacing" textLength="125.6567" x="99.4429" y="291.9761">[Approval Required]</text><polygon fill="#181818" points="429.8643,314.0313,439.8643,318.0313,429.8643,322.0313,433.8643,318.0313" style="stroke:#181818;stroke-width:1.0;"></polygon><line style="stroke:#181818;stroke-width:1.0;" x1="147.0264" x2="435.8643" y1="318.0313" y2="318.0313"></line><text fill="#000000" font-family="sans-serif" font-size="13" lengthAdjust="spacing" textLength="154.0894" x="154.0264" y="312.9653">Review Waiver Request</text><path d="M30,333.0313 L94.4429,333.0313 L94.4429,340.1641 L84.4429,350.1641 L30,350.1641 L30,333.0313 " fill="#EEEEEE" style="stroke:#000000;stroke-width:1.5;"></path><rect fill="none" height="260.8672" style="stroke:#000000;stroke-width:1.5;" width="606.9102" x="30" y="333.0313"></rect><text fill="#000000" font-family="sans-serif" font-size="13" font-weight="bold" lengthAdjust="spacing" textLength="19.4429" x="45" y="346.0981">alt</text><text fill="#000000" font-family="sans-serif" font-size="11" font-weight="bold" lengthAdjust="spacing" textLength="69.8027" x="109.4429" y="345.2417">[Approved]</text><line style="stroke:#181818;stroke-width:1.0;" x1="441.8643" x2="483.8643" y1="386.4297" y2="386.4297"></line><line style="stroke:#181818;stroke-width:1.0;" x1="483.8643" x2="483.8643" y1="386.4297" y2="399.4297"></line><line style="stroke:#181818;stroke-width:1.0;" x1="442.8643" x2="483.8643" y1="399.4297" y2="399.4297"></line><polygon fill="#181818" points="452.8643,395.4297,442.8643,399.4297,452.8643,403.4297,448.8643,399.4297" style="stroke:#181818;stroke-width:1.0;"></polygon><text fill="#000000" font-family="sans-serif" font-size="13" lengthAdjust="spacing" textLength="136.1636" x="448.8643" y="366.231">Update Bill/Line Item</text><text fill="#000000" font-family="sans-serif" font-size="13" lengthAdjust="spacing" textLength="176.0459" x="448.8643" y="381.3638">Update Remaining Amount</text><line style="stroke:#181818;stroke-width:1.0;" x1="441.8643" x2="483.8643" y1="428.5625" y2="428.5625"></line><line style="stroke:#181818;stroke-width:1.0;" x1="483.8643" x2="483.8643" y1="428.5625" y2="441.5625"></line><line style="stroke:#181818;stroke-width:1.0;" x1="442.8643" x2="483.8643" y1="441.5625" y2="441.5625"></line><polygon fill="#181818" points="452.8643,437.5625,442.8643,441.5625,452.8643,445.5625,448.8643,441.5625" style="stroke:#181818;stroke-width:1.0;"></polygon><text fill="#000000" font-family="sans-serif" font-size="13" lengthAdjust="spacing" textLength="141.9907" x="448.8643" y="423.4966">Set Status APPROVED</text><polygon fill="#181818" points="69.9551,466.6953,59.9551,470.6953,69.9551,474.6953,65.9551,470.6953" style="stroke:#181818;stroke-width:1.0;"></polygon><line style="stroke:#181818;stroke-width:1.0;" x1="63.9551" x2="440.8643" y1="470.6953" y2="470.6953"></line><text fill="#000000" font-family="sans-serif" font-size="13" lengthAdjust="spacing" textLength="100.7563" x="75.9551" y="465.6294">Notify Approval</text><line style="stroke:#000000;stroke-width:1.0;stroke-dasharray:2.0,2.0;" x1="30" x2="636.9102" y1="479.6953" y2="479.6953"></line><text fill="#000000" font-family="sans-serif" font-size="11" font-weight="bold" lengthAdjust="spacing" textLength="64.3296" x="35" y="489.9058">[Rejected]</text><polygon fill="#181818" points="429.8643,510.6328,439.8643,514.6328,429.8643,518.6328,433.8643,514.6328" style="stroke:#181818;stroke-width:1.0;"></polygon><line style="stroke:#181818;stroke-width:1.0;" x1="147.0264" x2="435.8643" y1="514.6328" y2="514.6328"></line><text fill="#000000" font-family="sans-serif" font-size="13" lengthAdjust="spacing" textLength="165.6104" x="154.0264" y="509.5669">Provide Rejection Reason</text><line style="stroke:#181818;stroke-width:1.0;" x1="441.8643" x2="483.8643" y1="543.7656" y2="543.7656"></line><line style="stroke:#181818;stroke-width:1.0;" x1="483.8643" x2="483.8643" y1="543.7656" y2="556.7656"></line><line style="stroke:#181818;stroke-width:1.0;" x1="442.8643" x2="483.8643" y1="556.7656" y2="556.7656"></line><polygon fill="#181818" points="452.8643,552.7656,442.8643,556.7656,452.8643,560.7656,448.8643,556.7656" style="stroke:#181818;stroke-width:1.0;"></polygon><text fill="#000000" font-family="sans-serif" font-size="13" lengthAdjust="spacing" textLength="135.5732" x="448.8643" y="538.6997">Set Status REJECTED</text><polygon fill="#181818" points="69.9551,581.8984,59.9551,585.8984,69.9551,589.8984,65.9551,585.8984" style="stroke:#181818;stroke-width:1.0;"></polygon><line style="stroke:#181818;stroke-width:1.0;" x1="63.9551" x2="440.8643" y1="585.8984" y2="585.8984"></line><text fill="#000000" font-family="sans-serif" font-size="13" lengthAdjust="spacing" textLength="103.4795" x="75.9551" y="580.8325">Notify Rejection</text><line style="stroke:#000000;stroke-width:1.0;stroke-dasharray:2.0,2.0;" x1="20" x2="646.9102" y1="601.8984" y2="601.8984"></line><text fill="#000000" font-family="sans-serif" font-size="11" font-weight="bold" lengthAdjust="spacing" textLength="146.2495" x="25" y="612.1089">[No Approval Required]</text><line style="stroke:#181818;stroke-width:1.0;" x1="441.8643" x2="483.8643" y1="636.8359" y2="636.8359"></line><line style="stroke:#181818;stroke-width:1.0;" x1="483.8643" x2="483.8643" y1="636.8359" y2="649.8359"></line><line style="stroke:#181818;stroke-width:1.0;" x1="442.8643" x2="483.8643" y1="649.8359" y2="649.8359"></line><polygon fill="#181818" points="452.8643,645.8359,442.8643,649.8359,452.8643,653.8359,448.8643,649.8359" style="stroke:#181818;stroke-width:1.0;"></polygon><text fill="#000000" font-family="sans-serif" font-size="13" lengthAdjust="spacing" textLength="141.9907" x="448.8643" y="631.77">Set Status APPROVED</text><polygon fill="#181818" points="69.9551,674.9688,59.9551,678.9688,69.9551,682.9688,65.9551,678.9688" style="stroke:#181818;stroke-width:1.0;"></polygon><line style="stroke:#181818;stroke-width:1.0;" x1="63.9551" x2="440.8643" y1="678.9688" y2="678.9688"></line><text fill="#000000" font-family="sans-serif" font-size="13" lengthAdjust="spacing" textLength="100.7563" x="75.9551" y="673.9028">Notify Approval</text><!--SRC=[bLBBJiCm4BpdArOzjL8HznoG0erGKHMYX9OB5vCii2YnW-q4ojTZEwzIjLLhAP8ztfcT7OTbMaYOh1NA2J05TkEn5Wng_I4a_M8Emxt5N4t5fAQCAiOrJ9uPDIWXtIgDfQjhjvvdQ-7gfZk33sdzMfA6Zf7WLurAm_ILYkAw88v0fcuE4faIV0wi53NNCw_ZxofjM44vqmY1g_5OeM796uls49WrCfqNt_Jyn4oFhKCfXVGx2eG_6MAkO4N6vip3Gc7RwR3cE1Thi9zgccgcQ-L374QBPNG_SoJhBwWgAOn5rvqavkx6hZxOVw89DeJVUs4Db55mH-U8lNNbehgrCQzip4k3l_0EJh1an8c_xmvvGYr53UsC4CHnyhW95qSeNUQHqFIs7SOVYbsyxOFipN0mZzYmAUyP9BZPsV_a0hz9-13UFPtfT-Wp6kQjJMSy4YSUzCBOpehCTZVV7m00]--></g></svg>